<?xml version="1.0" standalone="no"?>
<!DOCTYPE svg PUBLIC "-//W3C//DTD SVG 1.1//EN"
"http://www.w3.org/Graphics/SVG/1.1/DTD/svg11.dtd">
<svg xmlns="http://www.w3.org/2000/svg">
  <defs>
    <font id="240516_Chesa" horiz-adv-x="1000">
      <font-face font-family="240516_Chesa" units-per-em="1000" ascent="700" descent="-200" />
      <glyph unicode="&#x47;" d="M509 673C459 694 410 700 364 700C181 700 40 552 40 348C40 145 181 0 362 0V288M548 350H188" horiz-adv-x="549" />
      <glyph unicode="&#x4C;" d="M410 0H110V700" horiz-adv-x="450" />
      <glyph unicode="&#x21;" d="M144 0C174 0 199 24 199 55C199 85 174 109 144 109C114 109 90 85 90 55C90 24 114 0 144 0ZM144 707V234" horiz-adv-x="289" />
      <glyph unicode="&#x30;" d="M340 -5C492 -5 616 154 616 351C616 546 492 705 340 705C187 705 65 546 65 351C65 154 187 -5 340 -5Z" horiz-adv-x="681" />
      <glyph unicode="&#x69;" d="M124 500V0M124 580C154 580 179 604 179 635C179 665 154 689 124 689C94 689 70 665 70 635C70 604 94 580 124 580Z" horiz-adv-x="249" />
      <glyph unicode="&#x3B;" d="M104 0C134 0 159 24 159 55C159 85 134 109 104 109C74 109 50 85 50 55C50 24 74 0 104 0ZM184 -1 55 -126M104.0 300.0C134.0 300.0 159.0 324.0 159.0 355.0C159.0 385.0 134.0 409.0 104.0 409.0C74.0 409.0 50.0 385.0 50.0 355.0C50.0 324.0 74.0 300.0 104.0 300.0Z" horiz-adv-x="234" />
      <glyph unicode="&#x41;" d="M40 0 387 691 733 0M256 266C294 222 338 199 386 199C437 199 482 222 520 260" horiz-adv-x="773" />
      <glyph unicode="&#x73;" d="M370 386C370 449 318 500 240 500C172 500 115 461 115 396C115 370 124 324 197 275L242 245C318 194 323 143 323 123C323 55 263 0 191 0C121 0 59 51 59 114" horiz-adv-x="430" />
      <glyph unicode="&#x38;" d="M281 429C353 429 413 486 413 560C413 632 353 689 281 689C210 689 152 632 152 560C152 486 210 429 281 429ZM280 0C387 0 475 84 475 193C475 299 387 384 280 384C176 384 90 299 90 193C90 84 176 0 280 0Z" horiz-adv-x="565" />
      <glyph unicode="&#x55;" d="M90 700V248C90 110 199 0 337 0C472 0 582 110 582 248V700" horiz-adv-x="672" />
      <glyph unicode="&#x76;" d="M561 500 296 0 30 500" horiz-adv-x="591" />
      <glyph unicode="&#x6F;" d="M315 -5C456 -5 570 108 570 250C570 391 456 505 315 505C173 505 60 391 60 250C60 108 173 -5 315 -5Z" horiz-adv-x="630" />
      <glyph unicode="&#x6C;" d="M70 700V96C70 41 108 0 158 0" horiz-adv-x="209" />
      <glyph unicode="&#x46;" d="M370 350H144M400 700H60V0" horiz-adv-x="430" />
      <glyph unicode="&#x44;" d="M120 0H208C420 0 578 157 578 351C578 542 420 700 208 700H120M90 637V64" horiz-adv-x="648" />
      <glyph unicode="&#x64;" d="M584 700V0M514 385C444 465 362 500 288 500C164 500 60 403 60 249C60 96 162 0 285 0C359 0 441 34 514 114" horiz-adv-x="674" />
      <glyph unicode="&#x28;" d="M436 721C222 682 60 495 60 271C60 45 222 -142 436 -181" horiz-adv-x="417" />
      <glyph unicode="&#x56;" d="M773 700 402 0 30 700" horiz-adv-x="803" />
      <glyph unicode="&#x77;" d="M561 500 296 0 30 500M861 500 596 0 488 201" horiz-adv-x="891" />
      <glyph unicode="&#x5A;" d="M70 0H536M536 700H83M508 639 99 60" horiz-adv-x="606" />
      <glyph unicode="&#x71;" d="M614 500V-200M544 386C471 466 389 500 315 500C192 500 90 404 90 251C90 97 194 0 318 0C392 0 474 35 544 115" horiz-adv-x="674" />
      <glyph unicode="&#x70;" d="M90 500V-200M160 115C230 35 312 0 386 0C510 0 614 97 614 251C614 404 512 500 389 500C315 500 233 466 160 386" horiz-adv-x="674" />
      <glyph unicode="&#x4B;" d="M90 700V0M528 0 177 344C393 371 495 547 495 700" horiz-adv-x="598" />
      <glyph unicode="&#x37;" d="M536 700H83M508 639 57 0" horiz-adv-x="580" />
      <glyph unicode="&#x35;" d="M132 92C190 29 265 0 333 0C447 0 549 77 549 208C549 422 296 495 142 324M536 700H133M133 388V649" horiz-adv-x="580" />
      <glyph unicode="&#x62;" d="M90 700V0M160 114C233 34 315 0 389 0C512 0 614 96 614 249C614 403 510 500 386 500C312 500 230 465 160 385" horiz-adv-x="674" />
      <glyph unicode="&#x68;" d="M90 700V0M157 398C224 469 296 500 360 500C469 500 556 407 556 243V0" horiz-adv-x="646" />
      <glyph unicode="&#x2014;" d="M130 273H673" horiz-adv-x="803" />
      <glyph unicode="&#x75;" d="M556 500V0M90 500V257C90 93 177 -2 286 -2C350 -2 422 31 489 102" horiz-adv-x="646" />
      <glyph unicode="&#xE4;" d="M414 240C244 389 70 302 70 160C70 70 140 2 234 2C289 2 352 25 414 80M70 438C116 470 176 500 258 500C359 500 491 455 491 228V0M188.0 596.0C218.0 596.0 243.0 620.0 243.0 651.0C243.0 681.0 218.0 705.0 188.0 705.0C158.0 705.0 134.0 681.0 134.0 651.0C134.0 620.0 158.0 596.0 188.0 596.0ZM359.0 596.0C389.0 596.0 414.0 620.0 414.0 651.0C414.0 681.0 389.0 705.0 359.0 705.0C329.0 705.0 305.0 681.0 305.0 651.0C305.0 620.0 329.0 596.0 359.0 596.0Z" horiz-adv-x="581" />
      <glyph unicode="&#x33;" d="M320 363C382 363 475 441 475 493M320 363C382 363 475 286 475 234M489 541C489 709 195 786 96 567M77 161C164 -60 489 -52 489 159" horiz-adv-x="579" />
      <glyph unicode="&#x79;" d="M560 500 255 -65C210 -148 125 -197 30 -197M267 83 28 500" horiz-adv-x="590" />
      <glyph unicode="&#x2E;" d="M104 0C134 0 159 24 159 55C159 85 134 109 104 109C74 109 50 85 50 55C50 24 74 0 104 0Z" horiz-adv-x="209" />
      <glyph unicode="&#x40;" d="M621 240C451 389 277 302 277 160C277 70 347 2 441 2C496 2 559 25 621 80M277 438C323 470 384 500 458 500C567 500 698 435 698 208V122C698 56 734 0 800 0C866 0 902 56 902 122V243C902 471 695 657 466 657C237 657 60 471 60 243C60 14 245 -172 474 -172" horiz-adv-x="972" />
      <glyph unicode="&#x6A;" d="M114 452H297V49C297 -93 198 -200 70 -200C57 -200 44 -199 31 -197M297 580C327 580 352 604 352 635C352 665 327 689 297 689C267 689 243 665 243 635C243 604 267 580 297 580Z" horiz-adv-x="422" />
      <glyph unicode="&#x48;" d="M414 350H156M480 700V0M90 700V0" horiz-adv-x="570" />
      <glyph unicode="&#x301;" d="M39 563 282 670" horiz-adv-x="300" />
      <glyph unicode="&#x34;" d="M413 639V0M60 336 346 700M551 279H60" horiz-adv-x="621" />
      <glyph unicode="&#x72;" d="M90 500V0M157 398C224 469 296 500 360 500C383 500 414 496 438 484" horiz-adv-x="488" />
      <glyph unicode="&#x74;" d="M377 500H154M90 652V249C90 107 189 0 317 0C359 0 403 11 447 35" horiz-adv-x="489" />
      <glyph unicode="&#xF6;" d="M315 -5C456 -5 570 108 570 250C570 391 456 505 315 505C173 505 60 391 60 250C60 108 173 -5 315 -5ZM229.0 596.0C259.0 596.0 284.0 620.0 284.0 651.0C284.0 681.0 259.0 705.0 229.0 705.0C199.0 705.0 175.0 681.0 175.0 651.0C175.0 620.0 199.0 596.0 229.0 596.0ZM400.0 596.0C430.0 596.0 455.0 620.0 455.0 651.0C455.0 681.0 430.0 705.0 400.0 705.0C370.0 705.0 346.0 681.0 346.0 651.0C346.0 620.0 370.0 596.0 400.0 596.0Z" horiz-adv-x="630" />
      <glyph unicode="&#x43;" d="M706 539C608 651 493 700 389 700C216 700 70 564 70 349C70 134 213 0 385 0C489 0 604 48 706 160" horiz-adv-x="776" />
      <glyph unicode="&#xBB;" d="M160 71 345 253 160 435M30 71 215 253 30 435" horiz-adv-x="389" />
      <glyph unicode="&#x3A;" d="M104 0C134 0 159 24 159 55C159 85 134 109 104 109C74 109 50 85 50 55C50 24 74 0 104 0ZM104.0 300.0C134.0 300.0 159.0 324.0 159.0 355.0C159.0 385.0 134.0 409.0 104.0 409.0C74.0 409.0 50.0 385.0 50.0 355.0C50.0 324.0 74.0 300.0 104.0 300.0Z" horiz-adv-x="209" />
      <glyph unicode="&#x32;" d="M503 0H90M100 51 473 450M496 512C496 749 142 768 104 552" horiz-adv-x="586" />
      <glyph unicode="&#x45;" d="M548 350H158M706 539C608 651 493 700 389 700C216 700 70 564 70 349C70 134 213 0 385 0C489 0 604 48 706 160" horiz-adv-x="776" />
      <glyph unicode="&#x52;" d="M90 700V0M160 434C309 293 495 353 495 529C495 636 417 700 328 700C275 700 218 676 160 625M237 297 516 0" horiz-adv-x="586" />
      <glyph unicode="&#x53;" d="M494 540C494 629 421 700 312 700C218 700 138 645 138 554C138 518 151 455 253 385L315 343C421 270 428 200 428 172C428 77 346 0 245 0C147 0 60 71 60 160" horiz-adv-x="554" />
      <glyph unicode="&#x2013;" d="M130 273H473" horiz-adv-x="603" />
      <glyph unicode="&#x5F;" d="M130 0H473" horiz-adv-x="600" />
      <glyph unicode="&#x2019;" d="M328 700 253 515" horiz-adv-x="600" />
      <glyph unicode="&#x50;" d="M90 700V0M160 400C312 241 555 308 555 507C555 628 461 700 355 700C291 700 214 673 160 615" horiz-adv-x="597" />
      <glyph unicode="&#x7A;" d="M80 0H496M468 445 95 54M100 500H486" horiz-adv-x="576" />
      <glyph unicode="&#x42;" d="M90 700V0M165 77C214 24 277 0 334 0C430 0 516 65 516 175C516 355 295 416 165 272M180 483C301 359 504 405 504 557C504 710 301 756 180 631" horiz-adv-x="602" />
      <glyph unicode="&#x4F;" d="M419 -5C615 -5 775 154 775 351C775 546 615 705 419 705C223 705 65 546 65 351C65 154 223 -5 419 -5Z" horiz-adv-x="840" />
      <glyph unicode="&#x2D;" d="M130 273H373" horiz-adv-x="503" />
      <glyph unicode="&#x57;" d="M749 700 390 0 30 700M1075 700 716 0 602 220" horiz-adv-x="1105" />
      <glyph unicode="&#x4A;" d="M176 700H399V249C399 107 300 0 172 0C130 0 86 11 42 35" horiz-adv-x="469" />
      <glyph unicode="&#x6D;" d="M90 500V0M157 398C224 469 296 500 360 500C469 500 556 407 556 243V0M607 398C674 469 746 500 810 500C919 500 1006 407 1006 243V0" horiz-adv-x="1096" />
      <glyph unicode="&#x49;" d="M130 700V0" horiz-adv-x="260" />
      <glyph unicode="&#x2C;" d="M104 0C134 0 159 24 159 55C159 85 134 109 104 109C74 109 50 85 50 55C50 24 74 0 104 0ZM184 -1 55 -126" horiz-adv-x="234" />
      <glyph unicode="&#x308;" d="M74 591C104 591 129 615 129 646C129 676 104 700 74 700C44 700 20 676 20 646C20 615 44 591 74 591ZM245 591C275 591 300 615 300 646C300 676 275 700 245 700C215 700 191 676 191 646C191 615 215 591 245 591Z" horiz-adv-x="320" />
      <glyph unicode="&#xE9;" d="M142 284H523C514 441 405 500 299 500C157 500 60 394 60 250C60 107 159 0 287 0C329 0 373 11 417 35M178.0 568.0 421.0 675.0" horiz-adv-x="596" />
      <glyph unicode="&#x6E;" d="M90 500V0M157 398C224 469 296 500 360 500C469 500 556 407 556 243V0" horiz-adv-x="646" />
      <glyph unicode="&#x61;" d="M414 240C244 389 70 302 70 160C70 70 140 2 234 2C289 2 352 25 414 80M70 438C116 470 176 500 258 500C359 500 491 455 491 228V0" horiz-adv-x="581" />
      <glyph unicode="&#x3F;" d="M240 0C270 0 295 24 295 55C295 85 270 109 240 109C210 109 186 85 186 55C186 24 210 0 240 0ZM148 316 222 179M140 377C283 338 400 428 400 539C400 635 329 700 240 700C184 700 120 675 63 614" horiz-adv-x="484" />
      <glyph unicode="&#x58;" d="M70 0 713 685M713 0 448 281M336 401 70 685" horiz-adv-x="783" />
      <glyph unicode="&#x31;" d="M378 700 50 540M380 639V0" horiz-adv-x="470" />
      <glyph unicode="&#x63;" d="M514 385C444 465 362 500 288 500C164 500 60 403 60 249C60 96 162 0 285 0C359 0 441 34 514 114" horiz-adv-x="574" />
      <glyph unicode="&#x36;" d="M140 92C198 29 273 0 341 0C455 0 557 77 557 208C557 350 445 430 325 418M423 700 80 142" horiz-adv-x="627" />
      <glyph unicode="&#x78;" d="M70 0 539 500M539 0 364 186M245 313 70 500" horiz-adv-x="609" />
      <glyph unicode="&#x54;" d="M245 637V0M440 700H50" horiz-adv-x="490" />
      <glyph unicode="&#x4E;" d="M90 0V700M584 0V700M153 700 523 0" horiz-adv-x="674" />
      <glyph unicode="&#x20;" d="" horiz-adv-x="300" />
      <glyph unicode="&#x51;" d="M414 0C607 0 765 157 765 351C765 543 607 700 414 700C221 700 65 543 65 351C65 157 221 0 414 0ZM657 -91 454 212" horiz-adv-x="830" />
      <glyph unicode="&#x39;" d="M312 282C192 270 80 350 80 492C80 623 182 700 296 700C364 700 439 671 497 608M557 558 214 0" horiz-adv-x="627" />
      <glyph unicode="&#x66;" d="M321 420H149M377 680C344 693 313 700 283 700C173 700 90 613 90 473V0" horiz-adv-x="419" />
      <glyph unicode="&#x2026;" d="M403.0 0.0C433.0 0.0 458.0 24.0 458.0 55.0C458.0 85.0 433.0 109.0 403.0 109.0C373.0 109.0 349.0 85.0 349.0 55.0C349.0 24.0 373.0 0.0 403.0 0.0ZM104 0C134 0 159 24 159 55C159 85 134 109 104 109C74 109 50 85 50 55C50 24 74 0 104 0ZM253.0 0.0C283.0 0.0 308.0 24.0 308.0 55.0C308.0 85.0 283.0 109.0 253.0 109.0C223.0 109.0 199.0 85.0 199.0 55.0C199.0 24.0 223.0 0.0 253.0 0.0Z" horiz-adv-x="508" />
      <glyph unicode="&#x29;" d="M-19 721C195 682 357 495 357 271C357 45 195 -142 -19 -181" horiz-adv-x="417" />
      <glyph unicode="&#x59;" d="M140 0 677 685M336 401 70 685" horiz-adv-x="707" />
      <glyph unicode="&#xAB;" d="M229 71 44 253 229 435M359 71 174 253 359 435" horiz-adv-x="389" />
      <glyph unicode="&#x6B;" d="M90 700V0M428 0 177 246C331 265 404 391 404 500" horiz-adv-x="516" />
      <glyph unicode="&#x67;" d="M313 0C451 0 563 111 563 250C563 388 451 500 313 500C174 500 63 388 63 250C63 111 174 0 313 0ZM313 152V-159C313 -192 292 -202 264 -184L52 -47M599 500H306" horiz-adv-x="650" />
      <glyph unicode="&#x65;" d="M142 284H523C514 441 405 500 299 500C157 500 60 394 60 250C60 107 159 0 287 0C329 0 373 11 417 35" horiz-adv-x="596" />
      <glyph unicode="&#x4D;" d="M90 700V0M633 700V0M354 455C354 550 464 700 559 700M354 455C354 550 244 700 149 700" horiz-adv-x="723" />
    </font>
</defs>
</svg>
