<?xml version="1.0" standalone="no"?>
<!DOCTYPE svg PUBLIC "-//W3C//DTD SVG 1.1//EN"
"http://www.w3.org/Graphics/SVG/1.1/DTD/svg11.dtd">
<svg xmlns="http://www.w3.org/2000/svg">
  <defs>
    <font id="250609_Chesa" horiz-adv-x="1000">
      <font-face font-family="250609_Chesa" units-per-em="1000" ascent="700" descent="-200" />
      <glyph unicode="&#x41;" d="M252.0 266.0C291.0 221.0 336.0 198.0 387.0 198.0C439.0 198.0 485.0 221.0 524.0 260.0M46.0 10.0 388.0 700.0 730.0 10.0M-10.0 10.0H102.0M674.0 10.0H786.0" horiz-adv-x="776.0" />
      <glyph unicode="&#x42;" d="M115.0 690.0V10.0M190.0 77.0C239.0 24.0 302.0 0.0 359.0 0.0C455.0 0.0 541.0 65.0 541.0 175.0C541.0 355.0 320.0 416.0 190.0 272.0M213.0 478.0C337.0 362.0 492.0 411.0 492.0 559.0C492.0 647.0 428.0 700.0 353.0 700.0C308.0 700.0 261.0 680.0 213.0 638.0M59.0 10.0H171.0M59.0 690.0H171.0" horiz-adv-x="591.0" />
      <glyph unicode="&#x43;" d="M691.0 549.0C593.0 661.0 478.0 700.0 381.0 700.0C201.0 700.0 55.0 564.0 55.0 349.0C55.0 134.0 198.0 0.0 378.0 0.0C474.0 0.0 589.0 38.0 691.0 150.0M635.0 529.0 747.0 569.0M747.0 130.0 635.0 170.0" horiz-adv-x="836.0" />
      <glyph unicode="&#x44;" d="M233.0 10.0C445.0 10.0 603.0 157.0 603.0 351.0C603.0 542.0 445.0 690.0 233.0 690.0M115.0 690.0V10.0M59.0 690.0H171.0M59.0 10.0C96.0 10.0 134.0 10.0 171.0 10.0" horiz-adv-x="653.0" />
      <glyph unicode="&#x45;" d="M533.0 350.0H143.0M691.0 539.0C593.0 651.0 478.0 700.0 374.0 700.0C201.0 700.0 55.0 564.0 55.0 349.0C55.0 134.0 198.0 0.0 370.0 0.0C474.0 0.0 589.0 48.0 691.0 160.0M534.0 406.0V294.0M635.0 519.0 747.0 559.0M747.0 140.0 635.0 180.0" horiz-adv-x="839.0" />
      <glyph unicode="&#x46;" d="M417.0 350.0H191.0M447.0 690.0H191.0M51.0 10.0H163.0M107.0 690.0V10.0M417.0 406.0V294.0M447.0 746.0V634.0" horiz-adv-x="475.0" />
      <glyph unicode="&#x47;" d="M531.0 671.0C481.0 692.0 432.0 700.0 386.0 700.0C203.0 700.0 62.0 552.0 62.0 348.0C62.0 145.0 203.0 10.0 384.0 10.0H474.0M570.0 350.0H210.0M384.0 67.0V278.0M570.0 406.0V294.0M477.0 641.0 585.0 701.0" horiz-adv-x="639.0" />
      <glyph unicode="&#x48;" d="M402.0 350.0H168.0M480.0 690.0V10.0M90.0 690.0V10.0M34.0 10.0H146.0M424.0 10.0H536.0M34.0 690.0H146.0M424.0 690.0H536.0" horiz-adv-x="570.0" />
      <glyph unicode="&#x49;" d="M90.0 690.0V10.0M34.0 10.0H146.0M34.0 690.0H146.0" horiz-adv-x="180.0" />
      <glyph unicode="&#x4A;" d="M38.0 690.0H325.0M390.0 700.0V212.0C390.0 91.0 306.0 0.0 198.0 0.0C162.0 0.0 124.0 11.0 86.0 30.0M40.0 726.0V654.0M52.0 7.0 120.0 53.0" horiz-adv-x="475.0" />
      <glyph unicode="&#x4B;" d="M88.0 690.0V10.0M526.0 10.0 171.0 355.0M230.0 360.0C423.0 399.0 496.0 545.0 496.0 690.0M32.0 10.0H144.0M32.0 690.0H144.0M470.0 10.0H582.0M440.0 690.0H552.0" horiz-adv-x="613.0" />
      <glyph unicode="&#x4C;" d="M403.0 10.0H173.0M103.0 10.0V690.0M47.0 690.0H159.0M403.0 -46.0V66.0" horiz-adv-x="425.0" />
      <glyph unicode="&#x4D;" d="M90.0 646.0V10.0M619.0 646.0V10.0M572.0 650.0 354.0 367.0 137.0 650.0M34.0 10.0H146.0M563.0 10.0H675.0M569.0 690.0H675.0M139.0 690.0H32.0" horiz-adv-x="709.0" />
      <glyph unicode="&#x4E;" d="M91.0 10.0V690.0M565.0 10.0V690.0M180.0 637.0 474.0 70.0M35.0 10.0H147.0M29.0 690.0H153.0M509.0 690.0H621.0M505.0 10.0H625.0" horiz-adv-x="654.0" />
      <glyph unicode="&#x4F;" d="M354.0 -5.0C550.0 -5.0 710.0 154.0 710.0 351.0C710.0 546.0 550.0 705.0 354.0 705.0C158.0 705.0 0.0 546.0 0.0 351.0C0.0 154.0 158.0 -5.0 354.0 -5.0Z" horiz-adv-x="710.0" />
      <glyph unicode="&#x50;" d="M109.0 690.0V10.0M179.0 400.0C331.0 241.0 574.0 308.0 574.0 507.0C574.0 628.0 480.0 700.0 374.0 700.0C310.0 700.0 233.0 673.0 179.0 615.0M53.0 10.0H165.0M53.0 690.0H165.0" horiz-adv-x="605.0" />
      <glyph unicode="&#x51;" d="M424.0 0.0C615.0 0.0 772.0 157.0 772.0 351.0C772.0 543.0 615.0 700.0 424.0 700.0C233.0 700.0 78.0 543.0 78.0 351.0C78.0 157.0 233.0 0.0 424.0 0.0ZM707.0 -162.0 597.0 -8.0M540.0 73.0 431.0 226.0M388.0 200.0 474.0 252.0M663.0 -188.0 751.0 -136.0" horiz-adv-x="850.0" />
      <glyph unicode="&#x52;" d="M84.0 690.0V10.0M154.0 434.0C303.0 293.0 489.0 353.0 489.0 529.0C489.0 636.0 411.0 700.0 322.0 700.0C269.0 700.0 212.0 676.0 154.0 625.0M213.0 318.0 470.0 10.0M28.0 10.0H140.0M28.0 10.0H140.0M28.0 690.0H140.0M28.0 690.0H140.0M414.0 10.0H526.0" horiz-adv-x="545.0" />
      <glyph unicode="&#x53;" d="M506.0 540.0C506.0 629.0 432.0 700.0 323.0 700.0C229.0 700.0 149.0 645.0 149.0 554.0C149.0 518.0 162.0 455.0 264.0 385.0L326.0 343.0C432.0 270.0 439.0 200.0 439.0 172.0C439.0 77.0 357.0 0.0 256.0 0.0C158.0 0.0 71.0 71.0 71.0 160.0M18.0 141.0 124.0 179.0M558.0 558.0 454.0 522.0" horiz-adv-x="576.0" />
      <glyph unicode="&#x54;" d="M210.0 627.0V10.0M405.0 690.0H15.0M154.0 10.0H266.0M405.0 634.0V746.0M15.0 634.0V746.0" horiz-adv-x="420.0" />
      <glyph unicode="&#x55;" d="M90.0 690.0V248.0C90.0 110.0 199.0 0.0 337.0 0.0C472.0 0.0 582.0 110.0 582.0 248.0V690.0M34.0 690.0H146.0M526.0 690.0H638.0" horiz-adv-x="672.0" />
      <glyph unicode="&#x56;" d="M699.0 690.0 357.0 0.0 15.0 690.0M-41.0 690.0H71.0M643.0 690.0H755.0" horiz-adv-x="714.0" />
      <glyph unicode="&#x57;" d="M961.0 690.0 640.0 0.0 408.0 510.0M30.0 690.0 350.0 0.0 451.0 234.0M-26.0 690.0H86.0M905.0 690.0H1017.0M352.0 510.0H464.0" horiz-adv-x="991.0" />
      <glyph unicode="&#x58;" d="M83.0 10.0 679.0 690.0M666.0 10.0 426.0 281.0M324.0 401.0 70.0 690.0M27.0 10.0H139.0M610.0 10.0H722.0M14.0 690.0H126.0M623.0 690.0H735.0" horiz-adv-x="749.0" />
      <glyph unicode="&#x59;" d="M149.0 10.0 657.0 690.0M335.0 401.0 65.0 690.0M93.0 10.0H205.0M9.0 690.0H121.0M601.0 690.0H713.0" horiz-adv-x="722.0" />
      <glyph unicode="&#x5A;" d="M70.0 10.0H536.0M546.0 690.0H83.0M518.0 629.0 99.0 70.0M83.0 746.0V634.0M536.0 66.0V-46.0" horiz-adv-x="616.0" />
      <glyph unicode="&#x61;" d="M407.0 240.0C237.0 389.0 63.0 302.0 63.0 160.0C63.0 70.0 133.0 2.0 227.0 2.0C282.0 2.0 345.0 25.0 407.0 80.0M63.0 438.0C109.0 470.0 169.0 500.0 251.0 500.0C352.0 500.0 484.0 455.0 484.0 228.0V10.0M540.0 10.0H428.0M93.0 408.0 33.0 468.0" horiz-adv-x="581.0" />
      <glyph unicode="&#xE4;" d="M407.0 240.0C237.0 389.0 63.0 302.0 63.0 160.0C63.0 70.0 133.0 2.0 227.0 2.0C282.0 2.0 345.0 25.0 407.0 80.0M63.0 438.0C109.0 470.0 169.0 500.0 251.0 500.0C352.0 500.0 484.0 455.0 484.0 228.0V10.0M208.0 597.0C238.0 597.0 263.0 621.0 263.0 652.0C263.0 682.0 238.0 706.0 208.0 706.0C178.0 706.0 154.0 682.0 154.0 652.0C154.0 621.0 178.0 597.0 208.0 597.0ZM379.0 597.0C409.0 597.0 434.0 621.0 434.0 652.0C434.0 682.0 409.0 706.0 379.0 706.0C349.0 706.0 325.0 682.0 325.0 652.0C325.0 621.0 349.0 597.0 379.0 597.0ZM540.0 10.0H428.0M93.0 408.0 33.0 468.0" horiz-adv-x="581.0" />
      <glyph unicode="&#x62;" d="M114.0 690.0V10.0M184.0 114.0C257.0 34.0 339.0 0.0 413.0 0.0C536.0 0.0 638.0 96.0 638.0 249.0C638.0 403.0 534.0 500.0 410.0 500.0C336.0 500.0 254.0 465.0 184.0 385.0M170.0 690.0H58.0M170.0 10.0H58.0" horiz-adv-x="684.0" />
      <glyph unicode="&#x63;" d="M513.0 385.0C443.0 465.0 360.0 500.0 286.0 500.0C162.0 500.0 58.0 403.0 58.0 249.0C58.0 96.0 160.0 0.0 283.0 0.0C357.0 0.0 439.0 34.0 512.0 114.0M543.0 416.0 483.0 354.0M483.0 144.0 541.0 84.0" horiz-adv-x="625.0" />
      <glyph unicode="&#x64;" d="M570.0 690.0V10.0M500.0 385.0C430.0 465.0 348.0 500.0 274.0 500.0C150.0 500.0 46.0 403.0 46.0 249.0C46.0 96.0 148.0 0.0 271.0 0.0C345.0 0.0 427.0 34.0 500.0 114.0M626.0 690.0H514.0M626.0 10.0H514.0" horiz-adv-x="684.0" />
      <glyph unicode="&#x65;" d="M152.0 284.0H455.0M523.0 284.0C523.0 442.0 407.0 500.0 304.0 500.0C165.0 500.0 70.0 394.0 70.0 250.0C70.0 107.0 169.0 0.0 297.0 0.0C339.0 0.0 383.0 11.0 427.0 35.0M397.0 66.0 457.0 4.0" horiz-adv-x="603.0" />
      <glyph unicode="&#xE9;" d="M523.0 284.0C523.0 442.0 407.0 500.0 304.0 500.0C165.0 500.0 70.0 394.0 70.0 250.0C70.0 107.0 169.0 0.0 297.0 0.0C339.0 0.0 383.0 11.0 427.0 35.0M152.0 284.0H455.0M397.0 66.0 457.0 4.0M178.0 568.0 421.0 675.0" horiz-adv-x="603.0" />
      <glyph unicode="&#x66;" d="M317.0 420.0H154.0M316.0 685.0C291.0 695.0 267.0 700.0 244.0 700.0C160.0 700.0 97.0 634.0 97.0 527.0V10.0M153.0 10.0H41.0M317.0 476.0V364.0M286.0 655.0 346.0 715.0" horiz-adv-x="379.0" />
      <glyph unicode="&#x67;" d="M270.0 113.0C376.0 113.0 463.0 199.0 463.0 307.0C463.0 413.0 376.0 500.0 270.0 500.0C163.0 500.0 77.0 413.0 77.0 307.0C77.0 199.0 163.0 113.0 270.0 113.0ZM80.0 -190.0H340.0C419.0 -190.0 475.0 -163.0 475.0 -90.0C475.0 -17.0 419.0 5.0 341.0 5.0H190.0C132.0 5.0 60.0 17.0 60.0 69.0C60.0 92.0 74.0 111.0 95.0 135.0M556.0 500.0H422.0" horiz-adv-x="607.0" />
      <glyph unicode="&#x68;" d="M88.0 690.0V10.0M155.0 398.0C222.0 469.0 294.0 500.0 358.0 500.0C467.0 500.0 554.0 407.0 554.0 243.0V10.0M144.0 690.0H32.0M144.0 10.0H32.0M610.0 10.0H498.0" horiz-adv-x="641.0" />
      <glyph unicode="&#x69;" d="M145.0 10.0V490.0M145.0 580.0C175.0 580.0 200.0 604.0 200.0 635.0C200.0 665.0 175.0 689.0 145.0 689.0C115.0 689.0 90.0 665.0 90.0 635.0C90.0 604.0 115.0 580.0 145.0 580.0ZM201.0 490.0H89.0M201.0 10.0H89.0" horiz-adv-x="290.0" />
      <glyph unicode="&#x6A;" d="M28.0 490.0H218.0M262.0 580.0C292.0 580.0 317.0 604.0 317.0 635.0C317.0 665.0 292.0 689.0 262.0 689.0C232.0 689.0 208.0 665.0 208.0 635.0C208.0 604.0 232.0 580.0 262.0 580.0ZM262.0 500.0V9.0C262.0 -110.0 179.0 -200.0 71.0 -200.0M28.0 546.0V434.0M78.0 -159.0 64.0 -241.0" horiz-adv-x="390.0" />
      <glyph unicode="&#x6B;" d="M71.0 690.0V10.0M409.0 10.0 158.0 246.0M213.0 257.0C332.0 292.0 385.0 394.0 385.0 490.0M127.0 690.0H15.0M127.0 10.0H15.0M441.0 490.0H329.0M465.0 10.0H353.0" horiz-adv-x="478.0" />
      <glyph unicode="&#x6C;" d="M117.0 690.0V96.0C117.0 41.0 155.0 0.0 205.0 0.0M173.0 690.0H61.0" horiz-adv-x="254.0" />
      <glyph unicode="&#x6D;" d="M90.0 490.0V10.0M154.0 398.0C217.0 469.0 286.0 500.0 347.0 500.0C450.0 500.0 533.0 407.0 533.0 243.0V10.0M581.0 398.0C645.0 469.0 714.0 500.0 774.0 500.0C878.0 500.0 961.0 407.0 961.0 243.0V10.0M589.0 10.0H477.0M1017.0 10.0H905.0M146.0 10.0H34.0M146.0 490.0H34.0" horiz-adv-x="1051.0" />
      <glyph unicode="&#x6E;" d="M90.0 490.0V10.0M157.0 398.0C224.0 469.0 296.0 500.0 360.0 500.0C469.0 500.0 556.0 407.0 556.0 243.0V10.0M146.0 10.0H34.0M146.0 490.0H34.0M612.0 10.0H500.0" horiz-adv-x="646.0" />
      <glyph unicode="&#x6F;" d="M325.0 -5.0C466.0 -5.0 580.0 108.0 580.0 250.0C580.0 391.0 466.0 505.0 325.0 505.0C183.0 505.0 70.0 391.0 70.0 250.0C70.0 108.0 183.0 -5.0 325.0 -5.0Z" horiz-adv-x="650.0" />
      <glyph unicode="&#xF6;" d="M325.0 -5.0C466.0 -5.0 580.0 108.0 580.0 250.0C580.0 391.0 466.0 505.0 325.0 505.0C183.0 505.0 70.0 391.0 70.0 250.0C70.0 108.0 183.0 -5.0 325.0 -5.0ZM239.0 597.0C269.0 597.0 294.0 621.0 294.0 652.0C294.0 682.0 269.0 706.0 239.0 706.0C209.0 706.0 185.0 682.0 185.0 652.0C185.0 621.0 209.0 597.0 239.0 597.0ZM410.0 597.0C440.0 597.0 465.0 621.0 465.0 652.0C465.0 682.0 440.0 706.0 410.0 706.0C380.0 706.0 356.0 682.0 356.0 652.0C356.0 621.0 380.0 597.0 410.0 597.0Z" horiz-adv-x="650.0" />
      <glyph unicode="&#x70;" d="M116.0 490.0V-190.0M186.0 115.0C256.0 35.0 338.0 0.0 412.0 0.0C536.0 0.0 640.0 97.0 640.0 251.0C640.0 404.0 538.0 500.0 415.0 500.0C341.0 500.0 259.0 466.0 186.0 386.0M172.0 -190.0H60.0M172.0 490.0H60.0" horiz-adv-x="694.0" />
      <glyph unicode="&#x71;" d="M578.0 490.0V-190.0M508.0 386.0C435.0 466.0 353.0 500.0 279.0 500.0C156.0 500.0 54.0 404.0 54.0 251.0C54.0 97.0 158.0 0.0 282.0 0.0C356.0 0.0 438.0 35.0 508.0 115.0M634.0 -190.0H522.0M634.0 490.0H522.0" horiz-adv-x="694.0" />
      <glyph unicode="&#x72;" d="M101.0 490.0V10.0M168.0 398.0C235.0 469.0 307.0 500.0 371.0 500.0C376.0 500.0 380.0 500.0 385.0 500.0M157.0 10.0H45.0M157.0 490.0H45.0" horiz-adv-x="404.0" />
      <glyph unicode="&#x73;" d="M371.0 386.0C371.0 449.0 319.0 500.0 241.0 500.0C173.0 500.0 116.0 461.0 116.0 396.0C116.0 370.0 125.0 324.0 198.0 275.0L243.0 245.0C319.0 194.0 324.0 143.0 324.0 123.0C324.0 55.0 264.0 0.0 192.0 0.0C122.0 0.0 60.0 51.0 60.0 114.0M404.0 394.0 338.0 378.0M93.0 122.0 27.0 106.0" horiz-adv-x="431.0" />
      <glyph unicode="&#x74;" d="M101.0 584.0V174.0C101.0 74.0 170.0 0.0 260.0 0.0C278.0 0.0 296.0 3.0 314.0 9.0M379.0 490.0H155.0M157.0 584.0H45.0M329.0 -23.0 299.0 41.0" horiz-adv-x="389.0" />
      <glyph unicode="&#x75;" d="M550.0 490.0V10.0M84.0 490.0V257.0C84.0 93.0 171.0 -2.0 280.0 -2.0C344.0 -2.0 416.0 31.0 483.0 102.0M606.0 10.0H494.0M140.0 490.0H28.0M606.0 490.0H494.0" horiz-adv-x="636.0" />
      <glyph unicode="&#x76;" d="M562.0 490.0 296.0 0.0 30.0 490.0M618.0 490.0H506.0M86.0 490.0H-26.0" horiz-adv-x="592.0" />
      <glyph unicode="&#x77;" d="M781.0 490.0 534.0 0.0 357.0 381.0M30.0 490.0 276.0 0.0 369.0 201.0M86.0 490.0H-26.0M413.0 381.0H301.0M837.0 490.0H725.0" horiz-adv-x="811.0" />
      <glyph unicode="&#x78;" d="M40.0 10.0 509.0 490.0M509.0 10.0 334.0 186.0M215.0 313.0 40.0 490.0M96.0 490.0H-16.0M96.0 10.0H-16.0M565.0 10.0H453.0M565.0 490.0H453.0" horiz-adv-x="549.0" />
      <glyph unicode="&#x79;" d="M504.0 490.0 259.0 -65.0C220.0 -154.0 129.0 -197.0 34.0 -197.0M271.0 83.0 32.0 490.0M560.0 490.0H448.0M34.0 -253.0V-141.0M88.0 490.0H-24.0" horiz-adv-x="536.0" />
      <glyph unicode="&#x7A;" d="M70.0 10.0H486.0M458.0 435.0 85.0 64.0M90.0 490.0H476.0M90.0 434.0V546.0M486.0 -46.0V66.0" horiz-adv-x="557.0" />
      <glyph unicode="&#x30;" d="M355.0 -5.0C507.0 -5.0 631.0 154.0 631.0 351.0C631.0 546.0 507.0 705.0 355.0 705.0C202.0 705.0 80.0 546.0 80.0 351.0C80.0 154.0 202.0 -5.0 355.0 -5.0Z" horiz-adv-x="711.0" />
      <glyph unicode="&#x31;" d="M215.0 700.0 22.0 542.0M217.0 617.0V10.0M273.0 10.0H161.0" horiz-adv-x="320.0" />
      <glyph unicode="&#x32;" d="M532.0 10.0H99.0M104.0 53.0 479.0 456.0M502.0 498.0C502.0 611.0 411.0 700.0 300.0 700.0C187.0 700.0 98.0 611.0 98.0 498.0M154.0 498.0H42.0M532.0 -46.0V66.0" horiz-adv-x="574.0" />
      <glyph unicode="&#x33;" d="M113.0 690.0H529.0M100.0 206.0C100.0 91.0 196.0 0.0 317.0 0.0C436.0 0.0 534.0 91.0 534.0 206.0C534.0 318.0 436.0 411.0 317.0 411.0M495.0 653.0 256.0 409.0M113.0 634.0V746.0M156.0 206.0H44.0" horiz-adv-x="584.0" />
      <glyph unicode="&#x34;" d="M413.0 609.0V10.0M45.0 227.0 406.0 700.0M551.0 229.0H466.0M357.0 229.0H127.0M469.0 10.0H357.0M551.0 285.0V173.0" horiz-adv-x="622.0" />
      <glyph unicode="&#x35;" d="M518.0 690.0H165.0M165.0 409.0V639.0M100.0 206.0C100.0 90.0 195.0 0.0 315.0 0.0C433.0 0.0 530.0 90.0 530.0 206.0C530.0 318.0 433.0 410.0 315.0 410.0H231.0M518.0 746.0V634.0M156.0 206.0H44.0" horiz-adv-x="580.0" />
      <glyph unicode="&#x36;" d="M385.0 690.0 83.0 271.0M70.0 205.0C70.0 91.0 165.0 0.0 284.0 0.0C401.0 0.0 498.0 91.0 498.0 205.0C498.0 318.0 411.0 411.0 268.0 411.0M441.0 690.0H329.0" horiz-adv-x="568.0" />
      <glyph unicode="&#x37;" d="M562.0 690.0H109.0M534.0 629.0 83.0 10.0M109.0 746.0V634.0M139.0 10.0H27.0" horiz-adv-x="584.0" />
      <glyph unicode="&#x38;" d="M279.0 406.0C160.0 406.0 65.0 316.0 65.0 202.0C65.0 91.0 160.0 0.0 279.0 0.0C397.0 0.0 494.0 91.0 494.0 202.0C494.0 316.0 397.0 406.0 279.0 406.0ZM279.0 700.0C208.0 700.0 149.0 644.0 149.0 576.0C149.0 507.0 208.0 452.0 279.0 452.0C351.0 452.0 409.0 507.0 409.0 576.0C409.0 644.0 351.0 700.0 279.0 700.0Z" horiz-adv-x="559.0" />
      <glyph unicode="&#x39;" d="M183.0 10.0 485.0 429.0M498.0 495.0C498.0 609.0 403.0 700.0 284.0 700.0C167.0 700.0 70.0 609.0 70.0 495.0C70.0 382.0 157.0 289.0 300.0 289.0M127.0 10.0H239.0" horiz-adv-x="568.0" />
      <glyph unicode="&#x20;" d="" horiz-adv-x="300.0" />
      <glyph unicode="&#x2E;" d="M104.0 0.0C134.0 0.0 159.0 24.0 159.0 55.0C159.0 85.0 134.0 109.0 104.0 109.0C74.0 109.0 50.0 85.0 50.0 55.0C50.0 24.0 74.0 0.0 104.0 0.0Z" horiz-adv-x="209.0" />
      <glyph unicode="&#x2C;" d="M104.0 0.0C134.0 0.0 159.0 24.0 159.0 55.0C159.0 85.0 134.0 109.0 104.0 109.0C74.0 109.0 50.0 85.0 50.0 55.0C50.0 24.0 74.0 0.0 104.0 0.0ZM184.0 -1.0 55.0 -126.0" horiz-adv-x="234.0" />
      <glyph unicode="&#x3A;" d="" horiz-adv-x="209.0" />
      <glyph unicode="&#x3B;" d="" horiz-adv-x="234.0" />
      <glyph unicode="&#x2026;" d="" horiz-adv-x="508.0" />
      <glyph unicode="&#x21;" d="M145.0 0.0C175.0 0.0 199.0 24.0 199.0 55.0C199.0 85.0 175.0 109.0 145.0 109.0C115.0 109.0 91.0 85.0 91.0 55.0C91.0 24.0 115.0 0.0 145.0 0.0ZM145.0 690.0V234.0M201.0 228.0H89.0M201.0 690.0H89.0" horiz-adv-x="292.0" />
      <glyph unicode="&#x3F;" d="M297.0 0.0C327.0 0.0 352.0 24.0 352.0 55.0C352.0 85.0 327.0 109.0 297.0 109.0C267.0 109.0 243.0 85.0 243.0 55.0C243.0 24.0 267.0 0.0 297.0 0.0ZM298.0 245.0 495.0 456.0M510.0 498.0C510.0 611.0 419.0 700.0 308.0 700.0C195.0 700.0 106.0 611.0 106.0 498.0M162.0 498.0H50.0" horiz-adv-x="570.0" />
      <glyph unicode="&#x2D;" d="M130.0 273.0H373.0" horiz-adv-x="503.0" />
      <glyph unicode="&#x2013;" d="M130.0 273.0H473.0" horiz-adv-x="603.0" />
      <glyph unicode="&#x2014;" d="M130.0 273.0H673.0" horiz-adv-x="803.0" />
      <glyph unicode="&#x5F;" d="M130.0 0.0H473.0" horiz-adv-x="600.0" />
      <glyph unicode="&#x28;" d="M436.0 721.0C222.0 682.0 60.0 495.0 60.0 271.0C60.0 45.0 222.0 -142.0 436.0 -181.0" horiz-adv-x="457.0" />
      <glyph unicode="&#x29;" d="M21.0 721.0C235.0 682.0 397.0 495.0 397.0 271.0C397.0 45.0 235.0 -142.0 21.0 -181.0" horiz-adv-x="457.0" />
      <glyph unicode="&#x2019;" d="M328.0 700.0 253.0 515.0" horiz-adv-x="600.0" />
      <glyph unicode="&#xAB;" d="M229.0 71.0 44.0 253.0 229.0 435.0M359.0 71.0 174.0 253.0 359.0 435.0" horiz-adv-x="389.0" />
      <glyph unicode="&#xBB;" d="M160.0 71.0 345.0 253.0 160.0 435.0M30.0 71.0 215.0 253.0 30.0 435.0" horiz-adv-x="389.0" />
      <glyph unicode="&#x40;" d="M621.0 240.0C451.0 389.0 277.0 302.0 277.0 160.0C277.0 70.0 347.0 2.0 441.0 2.0C496.0 2.0 559.0 25.0 621.0 80.0M277.0 438.0C323.0 470.0 384.0 500.0 458.0 500.0C567.0 500.0 698.0 435.0 698.0 208.0V135.0C698.0 62.0 738.0 0.0 811.0 0.0C884.0 0.0 924.0 62.0 924.0 135.0V214.0V265.0C924.0 504.0 706.0 700.0 465.0 700.0C224.0 700.0 38.0 504.0 38.0 265.0C38.0 24.0 233.0 -172.0 474.0 -172.0" horiz-adv-x="972.0" />
      <glyph unicode="&#x308;" d="M160.0 499.0M74.0 591.0C104.0 591.0 129.0 615.0 129.0 646.0C129.0 676.0 104.0 700.0 74.0 700.0C44.0 700.0 20.0 676.0 20.0 646.0C20.0 615.0 44.0 591.0 74.0 591.0ZM245.0 591.0C275.0 591.0 300.0 615.0 300.0 646.0C300.0 676.0 275.0 700.0 245.0 700.0C215.0 700.0 191.0 676.0 191.0 646.0C191.0 615.0 215.0 591.0 245.0 591.0Z" horiz-adv-x="320.0" />
      <glyph unicode="&#x301;" d="M160.0 500.0M160.0 700.0M39.0 563.0 282.0 670.0" horiz-adv-x="300.0" />
    </font>
</defs>
</svg>
